<svg width="18" height="16" viewBox="0 0 18 16" fill="none" xmlns="http://www.w3.org/2000/svg">
<path fill-rule="evenodd" clip-rule="evenodd" d="M-2.5768e-06 7.99996C-2.60216e-06 7.70988 0.115232 7.43168 0.320348 7.22656C0.525466 7.02145 0.803666 6.90621 1.09375 6.90621L13.7659 6.90621L9.06937 2.21184C8.96768 2.11014 8.88701 1.98942 8.83198 1.85655C8.77694 1.72368 8.74862 1.58128 8.74862 1.43746C8.74862 1.29365 8.77694 1.15124 8.83198 1.01837C8.88701 0.885505 8.96768 0.764779 9.06937 0.663087C9.17106 0.561394 9.29179 0.480727 9.42466 0.425691C9.55752 0.370656 9.69993 0.342331 9.84375 0.342331C9.98756 0.342331 10.13 0.370656 10.2628 0.425691C10.3957 0.480727 10.5164 0.561393 10.6181 0.663087L17.1806 7.22559C17.2825 7.32719 17.3633 7.44788 17.4184 7.58076C17.4736 7.71364 17.502 7.85609 17.502 7.99996C17.502 8.14383 17.4736 8.28628 17.4184 8.41916C17.3633 8.55204 17.2825 8.67274 17.1806 8.77434L10.6181 15.3368C10.4127 15.5422 10.1342 15.6576 9.84375 15.6576C9.5533 15.6576 9.27475 15.5422 9.06937 15.3368C8.864 15.1315 8.74862 14.8529 8.74862 14.5625C8.74862 14.272 8.864 13.9935 9.06937 13.7881L13.7659 9.09371L1.09375 9.09371C0.803666 9.09371 0.525466 8.97848 0.320348 8.77336C0.115232 8.56824 -2.55144e-06 8.29004 -2.5768e-06 7.99996Z" fill="#000"/>
</svg>
