<svg width="14" height="18" viewBox="0 0 14 18" fill="none" xmlns="http://www.w3.org/2000/svg">
<path d="M0.149074 10.8609L6.17627 16.8881C6.27437 16.986 6.40243 17.0363 6.53048 17.0363C6.65853 17.0363 6.78659 16.986 6.88451 16.8881L12.9117 10.8609C13.1076 10.665 13.1076 10.3461 12.9117 10.1502C12.7159 9.95434 12.3969 9.95434 12.201 10.1502L7.03259 15.3208V1.46591C7.03259 1.18965 6.80661 0.963684 6.53037 0.963684C6.25412 0.963684 6.02814 1.18966 6.02814 1.46591V15.3208L0.857489 10.1502C0.66164 9.95434 0.342666 9.95434 0.146782 10.1502C-0.0490665 10.346 -0.0490665 10.665 0.149234 10.8609H0.149074Z" fill="#998551"/>
</svg>
