<svg width="28" height="28" viewBox="0 0 28 28" fill="none" xmlns="http://www.w3.org/2000/svg">
<path fill-rule="evenodd" clip-rule="evenodd" d="M27.6128 1.61279C27.9512 1.27434 27.9512 0.725596 27.6128 0.387142C27.2743 0.0486872 26.7256 0.0486872 26.3871 0.387142L14 12.7743L1.61279 0.387142C1.27434 0.0486872 0.725596 0.0486872 0.387142 0.387142C0.0486872 0.725596 0.0486872 1.27434 0.387142 1.61279L12.7743 14L0.387142 26.3871C0.0486872 26.7256 0.0486872 27.2743 0.387142 27.6128C0.725596 27.9512 1.27434 27.9512 1.61279 27.6128L14 15.2256L26.3871 27.6128C26.7256 27.9512 27.2743 27.9512 27.6128 27.6128C27.9512 27.2743 27.9512 26.7256 27.6128 26.3871L15.2256 14L27.6128 1.61279Z" fill="#EBEBE9"/>
</svg>
