<svg width="30" height="30" viewBox="0 0 30 30" fill="none" xmlns="http://www.w3.org/2000/svg">
<path d="M8.54841 4.00001C7.25682 4.00001 6.1986 5.05823 6.1986 6.34982V12.06H4.66438C4.29896 12.0585 4.00152 12.3537 4.00001 12.7191V16.872C3.99927 17.0483 4.06906 17.2178 4.19389 17.3425C4.31852 17.4673 4.48803 17.5371 4.66436 17.5364H6.19859V21.7513C6.19859 22.8874 7.01729 23.8464 8.09343 24.061V25.8356C8.09195 26.201 8.3872 26.4985 8.7526 26.5H11.7332C12.0986 26.4985 12.3939 26.2011 12.3923 25.8356V24.1062H18.1077V25.8356C18.1069 26.012 18.1767 26.1815 18.3016 26.3061C18.4262 26.4309 18.5957 26.5007 18.772 26.5H21.7474C21.9238 26.5007 22.0933 26.4309 22.2179 26.3061C22.3427 26.1815 22.4125 26.012 22.4118 25.8356V24.061C23.4868 23.845 24.3066 22.8859 24.3066 21.7513V17.5364H25.8408C26.2063 17.5349 26.5015 17.2374 26.5 16.872V12.7191C26.4985 12.3557 26.2042 12.0614 25.8408 12.06H24.3066V6.34981C24.3066 5.05822 23.2445 4 21.9529 4L8.54841 4.00001ZM8.54841 5.32356H21.9531C22.5343 5.32356 22.9832 5.76856 22.9832 6.34982V7.66301H7.52186V6.34982C7.52186 5.76855 7.96686 5.32356 8.54813 5.32356H8.54841ZM7.52214 8.98788H14.5908V18.2593H7.52214V8.98788ZM15.9144 8.98788H22.983V18.2593H15.9144V8.98788ZM5.32364 13.3837H6.1935V16.2118H5.32364V13.3837ZM24.307 13.3837H25.1769V16.2118H24.307V13.3837ZM7.52214 19.5827H22.9835V21.7515C22.9835 22.3328 22.5346 22.7829 21.9534 22.7829H8.54869C7.96742 22.7829 7.52243 22.3328 7.52243 21.7515L7.52214 19.5827ZM10.2416 20.4641C9.8616 20.4741 9.5475 20.7956 9.5475 21.1776C9.5475 21.5657 9.87284 21.8937 10.261 21.8937C10.6491 21.8937 10.977 21.5657 10.977 21.1776C10.977 20.7895 10.6491 20.4641 10.261 20.4641C10.2549 20.4641 10.2479 20.464 10.2416 20.4641H10.2416ZM20.2873 20.4641C19.9073 20.4741 19.5932 20.7956 19.5932 21.1776C19.5932 21.5657 19.9185 21.8937 20.3067 21.8937C20.6948 21.8937 21.0227 21.5657 21.0227 21.1776C21.0227 20.7895 20.6948 20.4641 20.3067 20.4641C20.3006 20.4641 20.2936 20.464 20.2873 20.4641H20.2873ZM12.9161 20.5158C12.7403 20.5162 12.5719 20.5864 12.448 20.711C12.3241 20.8356 12.2549 21.0044 12.2556 21.1802C12.2571 21.5441 12.5522 21.8387 12.9161 21.8394H17.4684C17.8318 21.8379 18.1261 21.5436 18.1276 21.1802C18.1283 21.0046 18.0593 20.836 17.9355 20.7116C17.812 20.5869 17.644 20.5166 17.4684 20.5158H12.9161ZM9.41722 24.1065H11.0691V25.1767H9.41722V24.1065ZM19.4317 24.1065H21.0887V25.1767H19.4317V24.1065Z" fill="#fff"/>
</svg>
