<svg width="30" height="30" viewBox="0 0 30 30" fill="none" xmlns="http://www.w3.org/2000/svg">
<path d="M14.3504 7.02206C12.0472 7.09669 10.2673 7.29896 9.87163 7.53184C9.56398 7.71202 8.97511 8.62201 8.26307 10.0152L7.88944 10.7491H7.06306C6.53999 10.7491 6.20158 10.7667 6.14008 10.7975C5.9732 10.8811 5.8896 11.0216 5.8896 11.2238C5.8896 11.3777 5.91603 11.4392 6.01708 11.5446L6.14457 11.6721H6.78629C7.13782 11.6721 7.42801 11.6897 7.42801 11.7072C7.42801 11.7293 7.40158 11.7775 7.37083 11.8258C7.31798 11.8916 7.21693 11.9094 6.72046 11.9402C6.09633 11.9752 5.81065 12.0456 5.63493 12.2128C5.57775 12.2656 5.41952 12.4632 5.28339 12.6565C5.08096 12.9466 5.00168 13.017 4.81284 13.1006C4.31187 13.3247 4.14037 13.7688 4.04362 15.0784C3.96002 16.2608 3.99974 18.0495 4.13587 18.9549C4.17542 19.2494 4.17542 19.2801 4.0875 19.3986C3.99525 19.5216 3.99525 19.5612 4.00822 20.7085L4.02135 21.8908L4.14435 22.1413C4.27616 22.4138 4.50918 22.6465 4.79923 22.8004C4.98389 22.8972 5.03226 22.9015 6.26721 22.9148C7.47574 22.9279 7.55499 22.9234 7.79234 22.8355C8.10432 22.7168 8.40765 22.4311 8.55705 22.1059C8.6493 21.9036 8.67141 21.7675 8.69318 21.3762L8.71528 20.8927L9.09325 20.9191C11.4887 21.086 19.013 21.086 21.4086 20.9191L21.7865 20.8927L21.8086 21.3719C21.8261 21.7631 21.8482 21.8906 21.9405 22.0972C22.0944 22.427 22.3932 22.7168 22.7097 22.8355C22.947 22.9234 23.0261 22.9278 24.2348 22.9148C25.4697 22.9017 25.5183 22.8973 25.7028 22.8004C25.993 22.6465 26.2259 22.4135 26.3577 22.1413L26.4807 21.8908L26.4938 20.7085C26.5069 19.5615 26.5069 19.5218 26.4145 19.3986C26.3266 19.28 26.3266 19.2492 26.3663 18.9549C26.5422 17.755 26.5422 15.1881 26.3663 14.2035C26.3048 13.8519 26.1684 13.5003 26.0322 13.3377C25.9664 13.2631 25.8125 13.1575 25.685 13.1003C25.4917 13.0167 25.4169 12.9464 25.2148 12.6519C25.083 12.4629 24.9246 12.265 24.8676 12.2124C24.6917 12.0455 24.406 11.9751 23.7821 11.9398C23.2854 11.9091 23.1844 11.8915 23.1317 11.8255C23.1009 11.7771 23.0745 11.7288 23.0745 11.7068C23.0745 11.6892 23.3645 11.6717 23.7162 11.6717H24.3579L24.4854 11.5443C24.6262 11.4035 24.6526 11.197 24.5601 10.9904C24.4633 10.775 24.3403 10.7486 23.4395 10.7486H22.6131L22.3977 10.318C21.8 9.11377 21.0571 7.88749 20.7671 7.63698C20.6835 7.56235 20.5077 7.46978 20.3802 7.43038C19.8131 7.26783 18.5915 7.13586 16.9653 7.05691C15.5633 6.99108 15.3128 6.9866 14.3505 7.02183L14.3504 7.02206ZM16.8113 7.98025C17.9058 8.04175 19.1188 8.14281 19.6681 8.22208C20.1868 8.29671 20.1955 8.30568 20.6306 9.03501C20.9998 9.65463 21.7559 11.0789 21.8041 11.2414C21.8348 11.3644 21.8305 11.3732 21.7426 11.3468C21.4218 11.2675 20.3537 11.0963 19.712 11.0171C16.7234 10.6609 13.7786 10.6609 10.7898 11.0171C10.1481 11.0963 9.07998 11.2675 8.7592 11.3468C8.66696 11.3732 8.66247 11.3644 8.70203 11.2368C8.74591 11.0742 9.48421 9.67639 9.86235 9.03914C10.2711 8.34023 10.3018 8.31383 10.8556 8.23052C12.3944 7.99317 15.0183 7.88347 16.8112 7.98019L16.8113 7.98025ZM17.6245 11.76C19.4266 11.8787 21.4528 12.1777 22.191 12.4411C22.2921 12.4762 22.4372 12.5512 22.5163 12.608C22.7404 12.7749 22.9207 12.8189 23.6018 12.8585C24.1951 12.8892 24.2393 12.898 24.3051 12.9946C24.5338 13.3418 24.8411 13.6892 25.0304 13.8122C25.4083 14.054 25.4038 14.054 25.4348 14.2914L25.4569 14.5154L24.6084 14.6299C23.426 14.7925 22.279 14.9155 21.5801 14.964C20.9119 15.0036 20.7493 15.0608 20.4769 15.351C20.1605 15.6807 19.9539 16.2915 19.9539 16.8935V17.2012L19.1762 17.2363C18.1872 17.2846 11.7 17.2758 11.0538 17.2276L10.5703 17.1881L10.5396 16.7486C10.491 15.9925 10.2492 15.4563 9.84047 15.1794C9.59432 15.0169 9.4449 14.9818 8.79885 14.9511C8.26713 14.9203 7.07159 14.7885 5.73978 14.6083L5.04521 14.5161L5.06731 14.292C5.09806 14.0547 5.09374 14.0547 5.4717 13.8128C5.65635 13.6942 5.85863 13.4613 6.20566 12.9778C6.25387 12.912 6.36822 12.8942 6.90023 12.8591C7.5948 12.8152 7.75289 12.7755 8.02082 12.591C8.56152 12.2087 11.4536 11.7867 14.1523 11.6988C14.8334 11.6764 16.8904 11.7159 17.6244 11.76L17.6245 11.76ZM5.8016 15.5619C7.1376 15.7465 8.07386 15.8474 8.68053 15.8783C9.22122 15.9048 9.25628 15.9134 9.36616 16.0234C9.51126 16.1642 9.57275 16.375 9.61231 16.8277L9.63874 17.1749L9.24748 17.1483C9.03208 17.1307 8.31139 17.0912 7.64769 17.0516C6.98388 17.012 6.1051 16.9594 5.69174 16.9329L4.94462 16.8801L4.93148 16.6603C4.91819 16.4757 4.96223 15.4518 4.97969 15.4518C4.98401 15.4518 5.35317 15.5003 5.8016 15.5618L5.8016 15.5619ZM25.5579 15.9882C25.5755 16.2872 25.58 16.6078 25.571 16.7046L25.5579 16.8804L24.8108 16.9333C24.402 16.9597 23.5099 17.0125 22.833 17.0519C22.1562 17.0915 21.4355 17.1355 21.2332 17.1487L20.8639 17.1748L20.8904 16.832C20.9254 16.41 21.0268 16.0937 21.1629 15.9884C21.2465 15.9225 21.3783 15.9004 21.809 15.8783C22.4067 15.8519 23.6021 15.7201 24.6789 15.5619C25.0659 15.509 25.4129 15.4608 25.4525 15.4565C25.5185 15.4518 25.5318 15.5268 25.5579 15.9882L25.5579 15.9882ZM5.982 17.8913C9.63876 18.1418 13.9945 18.2912 16.3503 18.2428C19.0577 18.19 22.3189 18.0495 24.521 17.8913C25.0133 17.8562 25.444 17.8254 25.479 17.8254C25.5493 17.8254 25.5405 17.9529 25.4219 18.8802C25.3251 19.632 25.2989 19.7021 25.1273 19.7329C24.7668 19.7944 22.8199 19.9219 20.5256 20.0274C18.9037 20.102 13.4495 20.1285 11.5373 20.0715C9.51559 20.01 7.46736 19.9132 6.30708 19.8253C5.85002 19.7902 5.43695 19.7595 5.39727 19.7595C5.20829 19.7595 5.14679 19.5441 5.02811 18.4848C4.95781 17.8344 4.95781 17.8256 5.00169 17.8256C5.02411 17.8251 5.46359 17.8561 5.98214 17.8913L5.982 17.8913ZM5.47205 20.6821C5.77106 20.7172 7.51127 20.8579 7.68281 20.8579C7.72237 20.8579 7.73566 20.968 7.73566 21.2535C7.73566 21.9918 7.71805 22.0006 6.35112 22.0006C5.1908 22.0006 5.09839 21.983 4.98404 21.7151C4.94449 21.614 4.92255 21.3986 4.92255 21.0777C4.92255 20.5988 4.92255 20.5942 5.0236 20.6161C5.07677 20.6251 5.27873 20.6558 5.47205 20.6821L5.47205 20.6821ZM25.5801 21.0777C25.5801 21.3985 25.558 21.614 25.5186 21.7151C25.4043 21.9832 25.312 22.0006 24.1519 22.0006C22.7851 22.0006 22.7673 21.992 22.7673 21.2535V20.8669L23.1542 20.8361C24.0993 20.7658 25.0924 20.6779 25.2947 20.6428C25.4177 20.6207 25.5277 20.6033 25.5495 20.599C25.5669 20.5986 25.5801 20.814 25.5801 21.0777H25.5801Z" fill="#fff" stroke="#fff" stroke-width="0.2"/>
<path d="M11.6428 15.5794C11.4318 15.7948 11.4933 16.2036 11.7571 16.3222C11.8407 16.3618 12.7241 16.3751 15.2556 16.3751C18.3365 16.3751 18.6531 16.3664 18.7673 16.3004C19.0221 16.151 19.0663 15.7905 18.8596 15.5798L18.7321 15.4523H11.7704L11.6428 15.5794Z" fill="#fff" stroke="#fff" stroke-width="0.2"/>
</svg>
