<svg width="34" height="30" viewBox="0 0 34 30" fill="none" xmlns="http://www.w3.org/2000/svg">
<path d="M4.8438 4C4.37786 4 4 4.37785 4 4.8438C4 5.30973 4.37765 5.68759 4.8438 5.68759H7.53329L10.4337 19.3724C10.5484 19.8875 10.8861 20.3162 11.3126 20.3129H25.375C25.8207 20.3192 26.2308 19.915 26.2308 19.4691C26.2308 19.0234 25.8207 18.619 25.375 18.6253H11.9981L11.6377 16.9377H26.5002C26.8781 16.9349 27.2349 16.6471 27.3175 16.2785L29.2862 7.84105C29.3958 7.35138 28.9707 6.8164 28.4689 6.81264H9.50219L9.04508 4.66817C8.96524 4.29346 8.6019 3.99975 8.21896 4.00015L4.8438 4ZM9.85354 8.50008H27.4055L25.8323 15.2501H11.2867L9.85354 8.50008ZM14.1251 20.875C12.5817 20.875 11.3126 22.1442 11.3126 23.6875C11.3126 25.2309 12.5817 26.5 14.1251 26.5C15.6684 26.5 16.9375 25.2309 16.9375 23.6875C16.9375 22.1442 15.6684 20.875 14.1251 20.875ZM22.5625 20.875C21.0192 20.875 19.75 22.1442 19.75 23.6875C19.75 25.2309 21.0192 26.5 22.5625 26.5C24.1059 26.5 25.375 25.2309 25.375 23.6875C25.375 22.1442 24.1059 20.875 22.5625 20.875V20.875ZM14.1251 22.5626C14.7564 22.5626 15.2499 23.0562 15.2499 23.6875C15.2499 24.3188 14.7564 24.8124 14.1251 24.8124C13.4938 24.8124 13.0002 24.3186 13.0002 23.6875C13.0002 23.0562 13.494 22.5626 14.1251 22.5626ZM22.5625 22.5626C23.1938 22.5626 23.6874 23.0562 23.6874 23.6875C23.6874 24.3188 23.1938 24.8124 22.5625 24.8124C21.9312 24.8124 21.4376 24.3186 21.4376 23.6875C21.4376 23.0562 21.9314 22.5626 22.5625 22.5626Z" fill="white"/>
</svg>
