<svg width="21" height="17" viewBox="0 0 21 17" fill="none" xmlns="http://www.w3.org/2000/svg">
<path fill-rule="evenodd" clip-rule="evenodd" d="M20.625 3.87203C20.5487 2.90962 20.0935 1.97897 19.3433 1.25151C18.5231 0.456123 17.4323 0 16.3507 0C15.4468 0 14.6188 0.320254 14.0192 0.901785C14.0191 0.901872 14.019 0.901915 14.0189 0.902003L4.82247 9.82012C4.40039 10.2294 4.16795 10.7736 4.16795 11.3524C4.16795 11.9313 4.40039 12.4754 4.82247 12.8847C5.24455 13.294 5.80571 13.5195 6.4026 13.5195C6.99949 13.5195 7.56069 13.294 7.98273 12.8847L17.1794 3.96636C17.2643 3.88402 17.3111 3.77457 17.3111 3.65809C17.3111 3.54162 17.2643 3.43217 17.1794 3.34992C17.0946 3.26757 16.9817 3.22224 16.8616 3.22224C16.7415 3.22224 16.6286 3.26757 16.5438 3.34987L7.34704 12.2683C7.09479 12.513 6.75937 12.6477 6.4026 12.6477C6.04583 12.6477 5.71046 12.513 5.45815 12.2683C5.20589 12.0237 5.06695 11.6984 5.06695 11.3524C5.06695 11.0064 5.20589 10.6812 5.45815 10.4365L14.6548 1.51823C14.6548 1.51819 14.6549 1.51814 14.6549 1.5181C15.0859 1.10038 15.6883 0.870269 16.3512 0.870269C17.1949 0.870269 18.0538 1.23389 18.7077 1.86795C19.3061 2.44835 19.6688 3.18384 19.7287 3.9389C19.7866 4.66877 19.552 5.32906 19.0684 5.79809L15.8225 8.94575C15.8225 8.94575 15.8225 8.94575 15.8225 8.94579L9.87162 14.7165C8.94502 15.6151 7.71303 16.1099 6.4026 16.1099C5.09217 16.1099 3.86018 15.6151 2.93358 14.7165C2.0085 13.8194 1.49904 12.6247 1.49904 11.3524C1.49904 10.0801 2.0085 8.88542 2.93358 7.98839L10.1467 0.993585C10.2316 0.911244 10.2783 0.80179 10.2783 0.685362C10.2783 0.568933 10.2316 0.459436 10.1466 0.377095C10.0617 0.294797 9.94885 0.249508 9.82883 0.249508C9.70881 0.249508 9.5959 0.294841 9.51099 0.377138L2.29785 7.37194C1.20147 8.43514 0.597656 9.84875 0.597656 11.3524C0.597656 12.8561 1.20147 14.2697 2.29789 15.3329C3.39432 16.3962 4.85205 16.9817 6.4026 16.9817C7.95315 16.9817 9.41093 16.3961 10.5073 15.3329L16.4581 9.56219C16.4582 9.56206 16.4583 9.56189 16.4585 9.56172L19.704 6.41449C20.3763 5.76269 20.7034 4.85969 20.625 3.87203Z" fill="#998551"/>
</svg>
