<svg width="23" height="23" viewBox="0 0 23 23" fill="none" xmlns="http://www.w3.org/2000/svg">
<path fill-rule="evenodd" clip-rule="evenodd" d="M11.5 0C9.91275 0 8.41912 0.299477 7.01904 0.898437C5.61897 1.4974 4.3986 2.31722 3.35791 3.35791C2.31721 4.3986 1.4974 5.61897 0.898437 7.01904C0.299476 8.41912 0 9.91275 0 11.5C0 13.0872 0.299476 14.5809 0.898437 15.981C1.4974 17.381 2.31721 18.6014 3.35791 19.6421C4.3986 20.6828 5.61897 21.5026 7.01904 22.1016C8.41912 22.7005 9.91275 23 11.5 23C13.0872 23 14.5809 22.7005 15.981 22.1016C17.381 21.5026 18.6014 20.6828 19.6421 19.6421C20.6828 18.6014 21.5026 17.381 22.1016 15.981C22.7005 14.5809 23 13.0872 23 11.5C23 9.91275 22.7005 8.41912 22.1016 7.01904C21.5026 5.61897 20.6828 4.3986 19.6421 3.35791C18.6014 2.31722 17.381 1.4974 15.981 0.898437C14.5809 0.299477 13.0872 0 11.5 0ZM15.8125 12.2187H12.2187V15.8125C12.2187 16.0072 12.1476 16.1756 12.0054 16.3179C11.8631 16.4601 11.6947 16.5312 11.5 16.5312C11.3053 16.5312 11.1369 16.4601 10.9946 16.3179C10.8524 16.1756 10.7812 16.0072 10.7812 15.8125V12.2187H7.1875C6.99284 12.2187 6.82438 12.1476 6.68213 12.0054C6.53987 11.8631 6.46875 11.6947 6.46875 11.5C6.46875 11.3053 6.53987 11.1369 6.68213 10.9946C6.82438 10.8524 6.99284 10.7812 7.1875 10.7812H10.7812V7.1875C10.7812 6.99284 10.8524 6.82438 10.9946 6.68213C11.1369 6.53987 11.3053 6.46875 11.5 6.46875C11.6947 6.46875 11.8631 6.53987 12.0054 6.68213C12.1476 6.82438 12.2187 6.99284 12.2187 7.1875V10.7812H15.8125C16.0072 10.7812 16.1756 10.8524 16.3179 10.9946C16.4601 11.1369 16.5312 11.3053 16.5312 11.5C16.5312 11.6947 16.4601 11.8631 16.3179 12.0054C16.1756 12.1476 16.0072 12.2187 15.8125 12.2187Z" fill="#998551"/>
</svg>
