<svg width="11" height="11" viewBox="0 0 11 11" fill="none" xmlns="http://www.w3.org/2000/svg">
<path fill-rule="evenodd" clip-rule="evenodd" d="M9.97871 4.46049C9.9784 4.46025 9.97817 4.45994 9.97793 4.4597L5.79465 0.27658C5.61634 0.0981917 5.37927 0 5.1271 0C4.87494 0 4.63787 0.0981917 4.45948 0.27658L0.27839 4.45759C0.276982 4.459 0.275495 4.46049 0.274165 4.46189C-0.0920002 4.83017 -0.0913743 5.42769 0.275964 5.79503C0.44379 5.96294 0.665367 6.06011 0.902357 6.07036C0.912059 6.0713 0.921761 6.07177 0.931541 6.07177H1.09819V9.15022C1.09819 9.75947 1.59392 10.2551 2.20318 10.2551H3.83981C4.00576 10.2551 4.14026 10.1206 4.14026 9.95468V7.54112C4.14026 7.26314 4.36645 7.03702 4.64444 7.03702H5.60977C5.88776 7.03702 6.11387 7.26314 6.11387 7.54112V9.95468C6.11387 10.1206 6.24837 10.2551 6.41432 10.2551H8.05095C8.66028 10.2551 9.15594 9.75947 9.15594 9.15022V6.07177H9.31054C9.56263 6.07177 9.7997 5.97358 9.97817 5.79511C10.3459 5.42722 10.3461 4.82861 9.97871 4.46049Z" fill="#333333"/>
</svg>
