<svg xmlns="http://www.w3.org/2000/svg" width="20" height="20" viewBox="0 0 20 20">
  
    <g fill="none" fill-rule="evenodd">
        <g>
            <g>
                <g transform="translate(-1404.000000, -5922.000000) translate(191.000000, 5865.000000) translate(1109.000000, 57.000000)">
                    <g>
                        <path fill="#e6411e" fill-rule="nonzero" d="M10 0l2.294 7.104c.034.106.133.178.245.178L20 7.267l-6.046 4.374v.001c-.09.066-.128.182-.093.289l2.322 7.095-6.032-4.4c-.09-.065-.213-.065-.303 0l-6.029 4.4 2.322-7.095H6.14c.035-.107-.003-.223-.094-.289L0 7.268l7.461.015.001-.001c.112 0 .211-.072.245-.178L10 0z"  transform="translate(104.000000, 0.000000)"/>
                    </g>
                </g>
            </g>
        </g>
    </g>
</svg>
