<svg width="27" height="26" viewBox="0 0 27 26" fill="none" xmlns="http://www.w3.org/2000/svg">
<path d="M13.4877 0C15.2501 0 16.455 0.00866682 17.1025 0.0259998C17.642 0.0259998 18.2894 0.0433334 19.0447 0.078C20.3035 0.13 21.3915 0.329332 22.3087 0.676C23.2259 1.02267 24.0307 1.52533 24.723 2.184C25.4154 2.84267 25.9369 3.614 26.2876 4.498C26.6383 5.382 26.8406 6.43066 26.8946 7.644C26.9305 8.38934 26.9485 9.01333 26.9485 9.516C26.9665 10.1747 26.9755 11.3447 26.9755 13.026C26.9755 14.7073 26.9665 15.86 26.9485 16.484C26.9485 17.004 26.9305 17.628 26.8946 18.356C26.8406 19.5693 26.6383 20.618 26.2876 21.502C25.9369 22.386 25.4154 23.1617 24.723 23.829C24.0307 24.4963 23.2259 24.999 22.3087 25.337C21.3915 25.675 20.3035 25.87 19.0447 25.922C18.2714 25.9567 17.624 25.974 17.1025 25.974C16.4191 25.9913 15.2052 26 13.4608 26C11.7163 26 10.5204 25.9913 9.87302 25.974C9.33351 25.974 8.68611 25.9567 7.93079 25.922C6.67193 25.87 5.58393 25.675 4.66676 25.337C3.74959 24.999 2.94483 24.4963 2.25245 23.829C1.56008 23.1617 1.03856 22.386 0.687875 21.502C0.337192 20.618 0.134878 19.5693 0.0809264 18.356C0.0449592 17.6107 0.0269752 16.9867 0.0269752 16.484C0.00899198 15.8253 0 14.6553 0 12.974C0 11.2927 0.00899198 10.14 0.0269752 9.516C0.0269752 8.996 0.0449592 8.372 0.0809264 7.644C0.134878 6.43066 0.337192 5.382 0.687875 4.498C1.03856 3.614 1.56008 2.83834 2.25245 2.171C2.94483 1.50366 3.74959 1.001 4.66676 0.663C5.58393 0.324998 6.67193 0.13 7.93079 0.078C8.70409 0.0433334 9.3515 0.0259998 9.87302 0.0259998C10.5564 0.00866682 11.7613 0 13.4877 0ZM13.4877 6.5C12.2648 6.5 11.1364 6.79033 10.1023 7.371C9.06825 7.95167 8.25 8.74033 7.64755 9.737C7.04509 10.7337 6.74387 11.8213 6.74387 13C6.74387 14.1787 7.04509 15.2663 7.64755 16.263C8.25 17.2597 9.06825 18.0483 10.1023 18.629C11.1364 19.2097 12.2648 19.5 13.4877 19.5C14.7106 19.5 15.8391 19.2097 16.8732 18.629C17.9072 18.0483 18.7255 17.2597 19.3279 16.263C19.9304 15.2663 20.2316 14.1787 20.2316 13C20.2316 11.8213 19.9304 10.7337 19.3279 9.737C18.7255 8.74033 17.9072 7.95167 16.8732 7.371C15.8391 6.79033 14.7106 6.5 13.4877 6.5ZM22.2548 6.162C22.2548 5.72866 22.0884 5.35167 21.7557 5.031C21.423 4.71033 21.0274 4.55 20.5688 4.55C20.1102 4.55 19.7146 4.71033 19.3819 5.031C19.0492 5.35167 18.8828 5.733 18.8828 6.175C18.8828 6.617 19.0492 6.99833 19.3819 7.319C19.7146 7.63967 20.1102 7.8 20.5688 7.8C21.0274 7.8 21.423 7.63967 21.7557 7.319C22.0884 6.99833 22.2548 6.61267 22.2548 6.162ZM13.4877 9.1C14.2251 9.1 14.9039 9.27333 15.5244 9.62C16.1448 9.96667 16.6349 10.439 16.9946 11.037C17.3542 11.635 17.5341 12.2893 17.5341 13C17.5341 13.7107 17.3542 14.365 16.9946 14.963C16.6349 15.561 16.1448 16.0333 15.5244 16.38C14.9039 16.7267 14.2251 16.9 13.4877 16.9C12.7504 16.9 12.0715 16.7267 11.4511 16.38C10.8307 16.0333 10.3406 15.561 9.98093 14.963C9.62125 14.365 9.44142 13.7107 9.44142 13C9.44142 12.2893 9.62125 11.635 9.98093 11.037C10.3406 10.439 10.8307 9.96667 11.4511 9.62C12.0715 9.27333 12.7504 9.1 13.4877 9.1Z" fill="#998551"/>
</svg>
