<svg width="30" height="30" viewBox="0 0 30 30" fill="none" xmlns="http://www.w3.org/2000/svg">
<path d="M15.33 12.4802C16.095 12.4802 16.7099 11.8501 16.7099 11.0853C16.7099 10.3352 16.0948 9.70537 15.33 9.70537C14.5649 9.70519 13.9499 10.3352 13.9499 11.0851C13.9499 11.8501 14.5649 12.4802 15.33 12.4802ZM16.7999 14.4152C16.7999 13.7851 16.2898 13.2902 15.6749 13.2902H14.55C13.9199 13.2902 13.425 13.7853 13.425 14.4152C13.425 15.0302 13.9201 15.5401 14.55 15.5401V18.8252C13.9199 18.8252 13.425 19.3353 13.425 19.9502C13.425 20.5802 13.9201 21.0751 14.55 21.0751H16.7999C17.4149 21.0751 17.9248 20.5801 17.9248 19.9502C17.9248 19.3351 17.4147 18.8252 16.7999 18.8252V14.4152ZM15.45 4.20001C21.6602 4.20001 26.7 9.23974 26.7 15.45C26.7 21.6603 21.6602 26.7 15.45 26.7C9.22495 26.7 4.19995 21.6603 4.19995 15.45C4.19995 9.23974 9.22495 4.20001 15.45 4.20001V4.20001Z" fill="#998551"/>
</svg>
