<svg width="50" height="50" viewBox="0 0 50 50" fill="none" xmlns="http://www.w3.org/2000/svg">
<path d="M25.0558 12.1094C17.9129 12.1094 12.221 17.9129 12.221 24.9442C12.221 32.0871 17.9129 37.779 25.0558 37.779C32.0871 37.779 37.8906 32.0871 37.8906 24.9442C37.8906 17.9129 32.0871 12.1094 25.0558 12.1094ZM25.0558 33.3147C20.4799 33.3147 16.6853 29.6317 16.6853 24.9442C16.6853 20.3683 20.3683 16.6853 25.0558 16.6853C29.6317 16.6853 33.3147 20.3683 33.3147 24.9442C33.3147 29.6317 29.6317 33.3147 25.0558 33.3147ZM41.3504 11.6629C41.3504 9.98884 40.0112 8.64955 38.3371 8.64955C36.6629 8.64955 35.3237 9.98884 35.3237 11.6629C35.3237 13.3371 36.6629 14.6763 38.3371 14.6763C40.0112 14.6763 41.3504 13.3371 41.3504 11.6629ZM49.8326 14.6763C49.6094 10.6585 48.7165 7.08705 45.8147 4.18527C42.9129 1.28348 39.3415 0.390625 35.3237 0.167411C31.1942 -0.0558036 18.8058 -0.0558036 14.6763 0.167411C10.6585 0.390625 7.19866 1.28348 4.18527 4.18527C1.28348 7.08705 0.390625 10.6585 0.167411 14.6763C-0.0558036 18.8058 -0.0558036 31.1942 0.167411 35.3237C0.390625 39.3415 1.28348 42.8013 4.18527 45.8147C7.19866 48.7165 10.6585 49.6094 14.6763 49.8326C18.8058 50.0558 31.1942 50.0558 35.3237 49.8326C39.3415 49.6094 42.9129 48.7165 45.8147 45.8147C48.7165 42.8013 49.6094 39.3415 49.8326 35.3237C50.0558 31.1942 50.0558 18.8058 49.8326 14.6763ZM44.4754 39.6763C43.6942 41.9085 41.9085 43.5826 39.7879 44.4754C36.4397 45.8147 28.6272 45.4799 25.0558 45.4799C21.3728 45.4799 13.5603 45.8147 10.3237 44.4754C8.09152 43.5826 6.41741 41.9085 5.52455 39.6763C4.18527 36.4397 4.52009 28.6272 4.52009 24.9442C4.52009 21.3728 4.18527 13.5603 5.52455 10.2121C6.41741 8.09152 8.09152 6.41741 10.3237 5.52455C13.5603 4.18527 21.3728 4.52009 25.0558 4.52009C28.6272 4.52009 36.4397 4.18527 39.7879 5.52455C41.9085 6.3058 43.5826 8.09152 44.4754 10.2121C45.8147 13.5603 45.4799 21.3728 45.4799 24.9442C45.4799 28.6272 45.8147 36.4397 44.4754 39.6763Z" fill="#1E1C3C"/>
</svg>
