<svg width="24" height="26" viewBox="0 0 24 26" fill="none" xmlns="http://www.w3.org/2000/svg">
<path d="M0.0570073 6.93333H5.47268V26H0.0570073V6.93333ZM16.5891 6.93333C16.323 6.93333 16.0665 6.95139 15.8195 6.9875C15.5724 7.02361 15.3349 7.07778 15.1069 7.15C14.8789 7.22222 14.6888 7.28542 14.5368 7.33958C14.3848 7.39375 14.1948 7.48403 13.9667 7.61042C13.7387 7.73681 13.5962 7.81806 13.5392 7.85417C13.4822 7.89028 13.3397 7.99861 13.1116 8.17917C12.8836 8.35972 12.7696 8.45 12.7696 8.45V6.93333H7.35392V26H12.7696V13.975C12.7696 13.9389 12.7696 13.8667 12.7696 13.7583C12.7696 13.65 12.8171 13.4514 12.9121 13.1625C13.0071 12.8736 13.1401 12.6299 13.3112 12.4312C13.4822 12.2326 13.7672 12.0431 14.1663 11.8625C14.5653 11.6819 15.0309 11.5917 15.5629 11.5917C16.4751 11.5917 17.1496 11.8083 17.5867 12.2417C18.0238 12.675 18.2423 13.2528 18.2423 13.975V26H24V14.1917C24 12.9278 23.791 11.8354 23.3729 10.9146C22.9549 9.99374 22.4703 9.28959 21.9192 8.80208C21.3682 8.31458 20.7221 7.91736 19.981 7.61042C19.2399 7.30347 18.6128 7.11389 18.0998 7.04167C17.5867 6.96944 17.0831 6.93333 16.5891 6.93333ZM0.798099 0.758333C0.266031 1.26389 0 1.87777 0 2.6C0 3.32223 0.266031 3.93611 0.798099 4.44167C1.33017 4.94722 1.97624 5.2 2.73634 5.2C3.49644 5.2 4.14252 4.94722 4.67458 4.44167C5.20665 3.93611 5.47268 3.32223 5.47268 2.6C5.47268 1.87777 5.20665 1.26389 4.67458 0.758333C4.14252 0.252775 3.49644 0 2.73634 0C1.97624 0 1.33017 0.252775 0.798099 0.758333Z" fill="#998551"/>
</svg>
