<svg width="34" height="21" viewBox="0 0 34 21" fill="none" xmlns="http://www.w3.org/2000/svg">
<path d="M1.99993 2.81657H31.9999C32.5428 2.81657 32.9834 2.3764 32.9834 1.83314C32.9834 1.29013 32.5428 0.85 31.9999 0.85H1.99993C1.45706 0.85 1.0165 1.29014 1.0165 1.83314C1.0165 2.3764 1.45702 2.81657 1.99993 2.81657Z" fill="white" stroke="white" stroke-width="0.3"/>
<path d="M31.9999 9.7416H1.99993C1.45699 9.7416 1.0165 10.1821 1.0165 10.725C1.0165 11.268 1.45699 11.7085 1.99993 11.7085H31.9999C32.5429 11.7085 32.9834 11.268 32.9834 10.725C32.9834 10.1821 32.5429 9.7416 31.9999 9.7416Z" fill="white" stroke="white" stroke-width="0.3"/>
<path d="M31.9999 18.6337H1.99993C1.45702 18.6337 1.0165 19.0739 1.0165 19.6171C1.0165 20.1601 1.45706 20.6002 1.99993 20.6002H31.9999C32.5428 20.6002 32.9834 20.1601 32.9834 19.6171C32.9834 19.0739 32.5428 18.6337 31.9999 18.6337Z" fill="white" stroke="white" stroke-width="0.3"/>
</svg>
