<svg width="30" height="30" viewBox="0 0 30 30" fill="none" xmlns="http://www.w3.org/2000/svg">
<path d="M11.038 19.3124C11.038 19.9331 10.5344 20.4369 9.91357 20.4369C9.2923 20.4369 8.7891 19.9331 8.7891 19.3124C8.7891 18.6917 9.2923 18.1879 9.91357 18.1879C10.5346 18.1878 11.038 18.6915 11.038 19.3124ZM19.2037 18.1877C18.5826 18.1877 18.0792 18.6915 18.0792 19.3122C18.0792 19.9329 18.5828 20.4367 19.2037 20.4367C19.825 20.4367 20.3282 19.9329 20.3282 19.3122C20.3282 18.6915 19.825 18.1877 19.2037 18.1877ZM23.5394 23.1179H21.7141L23.9556 25.5675C24.1644 25.7972 24.148 26.1451 23.9179 26.3539C23.8099 26.452 23.6748 26.4961 23.5398 26.4961C23.3869 26.4961 23.2345 26.448 23.1237 26.3263L20.1938 23.1179H8.92358L5.99409 26.3241C5.8831 26.4461 5.73072 26.5 5.57795 26.5C5.44302 26.5 5.30751 26.4474 5.19985 26.3494C4.97021 26.1407 4.95334 25.7991 5.16181 25.5695L7.40331 23.1179H5.57754C5.2673 23.1179 5 22.834 5 22.5233V5.79991C5 4.80683 5.82364 4 6.81678 4H22.3011C23.294 4 24.1177 4.80678 24.1177 5.79991V22.5228C24.1177 22.8338 23.8504 23.1178 23.5398 23.1178L23.5394 23.1179ZM22.9929 7.65513H6.12439V15.8082H22.9929V7.65513ZM6.12439 5.80015V6.53047H22.9929V5.80015C22.9929 5.42735 22.6738 5.12476 22.3006 5.12476H6.81675C6.44355 5.12476 6.12449 5.42735 6.12449 5.80015H6.12439ZM22.9929 21.9934V16.9329H6.12439V21.9934H22.9929Z" fill="#fff" stroke="#fff" stroke-width="0.2"/>
</svg>
