<svg width="30" height="30" viewBox="0 0 30 30" fill="none" xmlns="http://www.w3.org/2000/svg">
<path d="M14.9972 3.55554C8.68909 3.55554 3.55566 8.68897 3.55566 14.9971C3.55566 21.3053 8.68909 26.4387 14.9972 26.4387C21.3054 26.4387 26.4388 21.3053 26.4388 14.9971C26.4388 8.68897 21.3054 3.55554 14.9972 3.55554V3.55554ZM14.9972 25.7238C9.08295 25.7238 4.27052 20.9114 4.27052 14.9971C4.27052 9.08283 9.08295 4.2704 14.9972 4.2704C20.9115 4.2704 25.724 9.08283 25.724 14.9971C25.724 20.9114 20.9115 25.7238 14.9972 25.7238ZM22.5637 14.9971C22.5637 15.1942 22.4045 15.3559 22.2049 15.3559H15.3563V22.2074C15.3563 22.4045 15.1971 22.5662 14.9976 22.5662C14.798 22.5662 14.6388 22.407 14.6388 22.2074V15.3533H7.79024C7.59319 15.3533 7.43148 15.1941 7.43148 14.9945C7.43148 14.795 7.59068 14.6358 7.79024 14.6358H14.6418L14.6416 7.78935C14.6416 7.59231 14.8008 7.43059 15.0004 7.43059C15.2 7.43059 15.3592 7.5898 15.3592 7.78935V14.6409H22.2107C22.4026 14.6382 22.5643 14.8 22.5643 14.997L22.5637 14.9971Z" fill="#998551" stroke="#998551"/>
</svg>
