<svg width="20" height="20" viewBox="0 0 20 20" fill="none" xmlns="http://www.w3.org/2000/svg">
<path id="Shape" fill-rule="evenodd" clip-rule="evenodd" d="M14.5104 2.48959C11.191 -0.829864 5.80905 -0.829864 2.48959 2.48959C-0.829864 5.80905 -0.829864 11.191 2.48959 14.5104C5.56979 17.5906 10.4258 17.8126 13.762 15.1764L17.6924 19.1066L19.1066 17.6924L15.1764 13.762C17.8126 10.4258 17.5906 5.56979 14.5104 2.48959ZM3.90381 3.90381C6.44221 1.3654 10.5578 1.3654 13.0962 3.90381C15.6346 6.44221 15.6346 10.5578 13.0962 13.0962C10.5578 15.6346 6.44221 15.6346 3.90381 13.0962C1.3654 10.5578 1.3654 6.44221 3.90381 3.90381Z" fill="#393221"/>
</svg>
