<svg width="30" height="30" viewBox="0 0 30 30" fill="none" xmlns="http://www.w3.org/2000/svg">
<path d="M11.9559 4C11.78 4.00022 11.6111 4.07024 11.487 4.19498C11.363 4.31951 11.2934 4.48857 11.2941 4.6645V6.64713H6.66162C6.48613 6.64713 6.31774 6.71671 6.19366 6.84101C6.06958 6.96509 5.99978 7.13326 6 7.30897V9.95855C6.00133 10.323 6.29713 10.6177 6.66162 10.6177H7.32346V25.8382C7.32346 26.2038 7.6197 26.5 7.9853 26.5H22.5438C22.9094 26.5 23.2056 26.2038 23.2056 25.8382V10.6177H23.8675C24.2319 10.6177 24.5278 10.323 24.5291 9.95855V7.30897C24.5293 7.13326 24.4595 6.96509 24.3354 6.84101C24.2113 6.71671 24.0429 6.64713 23.8675 6.64713H19.235V4.6645C19.2357 4.48856 19.1661 4.31951 19.042 4.19498C18.9179 4.07024 18.7491 4.00022 18.5732 4H11.9559ZM12.6175 5.32612H17.9118V6.64714H12.6175V5.32612ZM7.32346 7.9706H23.2058V9.29672H22.6114C22.589 9.29473 22.5666 9.29384 22.544 9.29428H7.98555C7.96295 9.29384 7.94057 9.29473 7.9182 9.29672H7.32374L7.32346 7.9706ZM8.64691 10.6177H21.8826V25.1768H8.64691V10.6177ZM11.2941 13.2649V22.5294H12.6175V13.2649H11.2941ZM14.6028 13.2649V22.5294H15.9265V13.2649H14.6028ZM17.9118 13.2649V22.5294H19.2352V13.2649H17.9118Z" fill="black"/>
</svg>
