<svg width="34" height="26" viewBox="0 0 34 26" fill="none" xmlns="http://www.w3.org/2000/svg">
<path d="M30.5149 6.48094C30.5149 6.63343 30.5149 6.77957 30.5149 6.91935C30.5149 7.05914 30.5149 7.20528 30.5149 7.35777C30.5149 9.5181 30.0826 11.7038 29.2181 13.915C28.3536 16.1261 27.0838 18.1276 25.4088 19.9194C23.7338 21.7112 21.6671 23.1662 19.2086 24.2845C16.7501 25.4282 13.9134 26 10.6985 26C8.72625 26 6.83513 25.7395 5.02503 25.2185C3.21493 24.6975 1.53994 23.9668 0 23.0264C0.297181 23.0772 0.580849 23.1026 0.851013 23.1026C1.12118 23.1026 1.40485 23.1026 1.70203 23.1026C3.32301 23.1026 4.86968 22.8612 6.34207 22.3783C7.81447 21.8954 9.14501 21.2092 10.3337 20.3196C8.82081 20.2942 7.47001 19.8558 6.28129 19.0044C5.09256 18.153 4.26858 17.0792 3.8093 15.783C4.02543 15.8084 4.24831 15.8338 4.47795 15.8592C4.70759 15.8847 4.93047 15.8974 5.1466 15.8974C5.4708 15.8974 5.78148 15.8719 6.07866 15.8211C6.37585 15.7703 6.67302 15.7195 6.9702 15.6686C5.37623 15.3636 4.04569 14.6139 2.97855 13.4194C1.9114 12.2248 1.37783 10.827 1.37783 9.22581V9.14956C1.86413 9.3783 2.37068 9.56891 2.8975 9.72141C3.42432 9.8739 3.97139 9.96285 4.53874 9.98827C3.59316 9.40371 2.83671 8.62855 2.26937 7.66276C1.70202 6.69696 1.41836 5.65494 1.41836 4.53666C1.41836 3.92668 1.50616 3.34213 1.68176 2.78299C1.85737 2.22385 2.09376 1.70284 2.39094 1.21994C3.25547 2.21115 4.21454 3.11339 5.26818 3.92669C6.32182 4.73998 7.45649 5.4389 8.67223 6.02346C9.88797 6.60802 11.1847 7.0782 12.5626 7.43402C13.9134 7.78984 15.3047 8.00586 16.7366 8.08211C16.6826 7.82796 16.642 7.5738 16.615 7.31965C16.588 7.06549 16.5745 6.81134 16.5745 6.55718C16.5745 4.75268 17.2499 3.20871 18.6007 1.92522C19.9515 0.641733 21.5995 0 23.5447 0C24.5443 0 25.4831 0.190614 26.3611 0.571847C27.2392 0.953081 27.9889 1.46138 28.6103 2.09677C29.4207 1.94428 30.1975 1.73461 30.9404 1.46774C31.6834 1.20088 32.379 0.876834 33.0274 0.495601C32.7843 1.25807 32.3993 1.95063 31.8725 2.57331C31.3456 3.196 30.7175 3.71065 29.9881 4.1173C30.6905 4.04106 31.3794 3.91398 32.0548 3.73607C32.7302 3.55816 33.3786 3.34213 34 3.08798C33.5137 3.74878 32.9801 4.3651 32.3993 4.93695C31.8184 5.5088 31.1903 6.02346 30.5149 6.48094Z" fill="#998551"/>
</svg>
