<svg width="26" height="26" viewBox="0 0 26 26" fill="none" xmlns="http://www.w3.org/2000/svg">
<path d="M12.9998 1.30013C9.89696 1.30013 6.92126 2.5331 4.7266 4.72693C2.53285 6.9217 1.2998 9.89755 1.2998 13.0001C1.2998 16.1027 2.53278 19.0787 4.7266 21.2733C6.92137 23.4671 9.89722 24.7001 12.9998 24.7001C16.1024 24.7001 19.0783 23.4672 21.273 21.2733C23.4668 19.0786 24.6998 16.1027 24.6998 13.0001C24.6968 9.89833 23.4628 6.92471 21.2691 4.73083C19.0754 2.53695 16.1016 1.30299 12.9998 1.30013ZM12.9998 23.6448C10.1765 23.6448 7.4696 22.5225 5.47306 20.5269C3.47736 18.5301 2.35514 15.8235 2.35514 13.0001C2.35514 10.1768 3.47741 7.46993 5.47306 5.47339C7.46979 3.47768 10.1765 2.35547 12.9998 2.35547C15.8231 2.35547 18.53 3.47774 20.5265 5.47339C22.5223 7.47011 23.6445 10.1768 23.6445 13.0001C23.6404 15.8217 22.5171 18.5272 20.5213 20.5219C18.5266 22.5176 15.8211 23.6409 12.9995 23.6451L12.9998 23.6448Z" fill="#998551"/>
<path d="M19.5002 7.81339C19.3408 7.72605 19.1529 7.70878 18.9802 7.76464C18.8076 7.82152 18.6664 7.94745 18.5902 8.11198C18.254 8.75181 17.8234 9.33681 17.3136 9.8487C17.3004 9.86292 17.2862 9.87409 17.2699 9.88323C16.9916 9.738 16.7316 9.57853 16.4564 9.45667H16.4554C15.5058 9.02606 14.4333 8.95089 13.4318 9.24339C12.0983 9.56738 10.9791 10.4672 10.3768 11.7002C10.1168 12.1917 9.9066 12.6985 9.66183 13.1921C9.4841 13.6065 9.19973 13.965 8.83714 14.2321C8.38619 14.5348 7.83167 14.6404 7.30049 14.5267C7.09228 14.4932 6.88714 14.4353 6.6769 14.4048V14.4038C6.58245 14.3987 6.48698 14.4038 6.39355 14.42C6.39762 14.5216 6.41996 14.6211 6.4616 14.7135C6.7287 15.13 7.01613 15.5321 7.32488 15.9201C7.98403 16.7082 8.84731 17.2993 9.82028 17.6284C10.7191 17.9341 11.6738 18.0407 12.6184 17.9402C14.0159 17.8244 15.3708 17.3999 16.5855 16.6971C17.5666 16.1324 18.2917 15.2102 18.6086 14.1235C18.8523 13.3557 18.8523 12.531 18.6086 11.7622C18.6086 11.7286 18.5852 11.6972 18.572 11.6636C18.5588 11.6301 18.572 11.6636 18.5436 11.6352C16.2036 13.64 13.5771 15.0334 10.442 15.322L10.5039 15.2936L10.5639 15.2753C12.7495 14.5298 14.8143 13.4685 16.6921 12.1269C17.728 11.3997 18.6248 10.4918 19.3389 9.44582C19.4983 9.20004 19.6425 8.9441 19.7736 8.68207C19.9371 8.36622 19.8152 7.97825 19.5004 7.81372L19.5002 7.81339Z" fill="#998551"/>
</svg>
